<svg width="20" height="24" viewBox="0 0 20 24" fill="none" xmlns="http://www.w3.org/2000/svg">
<path d="M10 0C9.38633 0 8.88889 0.497445 8.88889 1.11111V2.30194C5.12472 2.84272 2.22222 6.08856 2.22222 10V16.8309C2.22222 17.2224 2.04583 17.5787 1.78339 17.7173C0.683333 18.2982 0 19.4283 0 20.6667C0 22.5047 1.49533 24 3.33333 24H16.6667C18.5047 24 20 22.5047 20 20.6667C20 19.4283 19.3167 18.2982 18.2166 17.7173C17.9541 17.5787 17.7778 17.2225 17.7778 16.8309V10C17.7778 6.08856 14.8753 2.84272 11.1111 2.30194V1.11111C11.1111 0.497445 10.6137 0 10 0ZM15.5556 10V16.8309C15.5556 18.061 16.1776 19.1536 17.179 19.6824C17.5483 19.8774 17.7778 20.2546 17.7778 20.6667C17.7778 21.2793 17.2793 21.7778 16.6667 21.7778H3.33333C2.72067 21.7778 2.22222 21.2793 2.22222 20.6667C2.22222 20.2546 2.45167 19.8774 2.821 19.6824C3.82239 19.1536 4.44444 18.061 4.44444 16.8309V10C4.44444 6.93667 6.93667 4.44444 10 4.44444C13.0633 4.44444 15.5556 6.93667 15.5556 10Z" fill="#0C4C7B"/>
</svg>
