<svg width="25" height="24" viewBox="0 0 25 24" fill="none" xmlns="http://www.w3.org/2000/svg">
<rect x="0.877441" width="24" height="24" rx="12" fill="#FFC107"/>
<path d="M14.5697 12.5769H10.4005C10.0851 12.5769 9.82355 12.3154 9.82355 12V8.66921C9.82355 8.35382 10.0851 8.09229 10.4005 8.09229H14.5697C15.762 8.09229 16.8159 9.13844 16.8159 10.3384C16.8159 11.5692 15.8082 12.5769 14.5697 12.5769ZM10.9774 11.4231H14.5697C15.1697 11.4231 15.662 10.9307 15.662 10.3307C15.662 9.82305 15.1851 9.23844 14.5697 9.23844H10.9774V11.4231Z" fill="white"/>
<path d="M15.162 15.9075H10.4005C10.0851 15.9075 9.82355 15.6459 9.82355 15.3305V11.9998C9.82355 11.6844 10.0851 11.4229 10.4005 11.4229H15.162C16.5312 11.4229 17.6466 12.4305 17.6466 13.669C17.6466 14.9075 16.5312 15.9075 15.162 15.9075ZM10.9774 14.7536H15.162C15.8928 14.7536 16.4928 14.2613 16.4928 13.6613C16.4928 13.0613 15.9005 12.569 15.162 12.569H10.9774V14.7536Z" fill="white"/>
<path d="M13.3159 17.577C13.0005 17.577 12.739 17.3154 12.739 17.0001V15.3308C12.739 15.0154 13.0005 14.7539 13.3159 14.7539C13.6313 14.7539 13.8928 15.0154 13.8928 15.3308V17.0001C13.8928 17.3154 13.639 17.577 13.3159 17.577Z" fill="white"/>
<path d="M11.239 17.577C10.9236 17.577 10.662 17.3154 10.662 17.0001V15.3308C10.662 15.0154 10.9236 14.7539 11.239 14.7539C11.5544 14.7539 11.8159 15.0154 11.8159 15.3308V17.0001C11.8159 17.3154 11.5544 17.577 11.239 17.577Z" fill="white"/>
<path d="M13.3159 9.24593C13.0005 9.24593 12.739 8.98439 12.739 8.66901V6.99977C12.739 6.68439 13.0005 6.42285 13.3159 6.42285C13.6313 6.42285 13.8928 6.68439 13.8928 6.99977V8.66901C13.8928 8.98439 13.639 9.24593 13.3159 9.24593Z" fill="white"/>
<path d="M11.239 9.24593C10.9236 9.24593 10.662 8.98439 10.662 8.66901V6.99977C10.662 6.68439 10.9236 6.42285 11.239 6.42285C11.5544 6.42285 11.8159 6.68439 11.8159 6.99977V8.66901C11.8159 8.98439 11.5544 9.24593 11.239 9.24593Z" fill="white"/>
<path d="M11.9851 9.24613H9.06972C8.75434 9.24613 8.4928 8.98459 8.4928 8.66921C8.4928 8.35382 8.75434 8.09229 9.06972 8.09229H11.9851C12.3005 8.09229 12.562 8.35382 12.562 8.66921C12.562 8.98459 12.3082 9.24613 11.9851 9.24613Z" fill="white"/>
<path d="M11.9851 15.9078H9.06972C8.75434 15.9078 8.4928 15.6462 8.4928 15.3308C8.4928 15.0154 8.75434 14.7539 9.06972 14.7539H11.9851C12.3005 14.7539 12.562 15.0154 12.562 15.3308C12.562 15.6462 12.3082 15.9078 11.9851 15.9078Z" fill="white"/>
</svg>
