<svg width="48" height="35" viewBox="0 0 48 35" fill="black" xmlns="http://www.w3.org/2000/svg">
<path d="M46.3668 1.03336C46.0569 0.720929 45.6883 0.472948 45.2821 0.303719C44.8759 0.13449 44.4402 0.0473633 44.0002 0.0473633C43.5601 0.0473633 43.1244 0.13449 42.7182 0.303719C42.312 0.472948 41.9434 0.720929 41.6335 1.03336L16.8002 25.9L6.36683 15.4334C6.04509 15.1226 5.66528 14.8782 5.2491 14.7142C4.83291 14.5502 4.3885 14.4697 3.94123 14.4775C3.49396 14.4852 3.0526 14.581 2.64234 14.7593C2.23208 14.9376 1.86095 15.195 1.55016 15.5167C1.23936 15.8384 0.994983 16.2182 0.83097 16.6344C0.666956 17.0506 0.586522 17.495 0.59426 17.9423C0.601998 18.3895 0.697757 18.8309 0.876069 19.2412C1.05438 19.6514 1.31175 20.0226 1.63349 20.3334L14.4335 33.1334C14.7434 33.4458 15.112 33.6938 15.5182 33.863C15.9244 34.0322 16.3601 34.1193 16.8002 34.1193C17.2402 34.1193 17.6759 34.0322 18.0821 33.863C18.4883 33.6938 18.857 33.4458 19.1668 33.1334L46.3668 5.93336C46.7052 5.62122 46.9752 5.24238 47.1599 4.82071C47.3446 4.39905 47.4399 3.9437 47.4399 3.48336C47.4399 3.02302 47.3446 2.56767 47.1599 2.146C46.9752 1.72434 46.7052 1.3455 46.3668 1.03336Z" fill="white"/>
</svg>
