<svg width="136" height="25" viewBox="0 0 136 25" fill="none" xmlns="http://www.w3.org/2000/svg">
<path d="M21.3347 12.7745C20.9247 12.7745 20.5847 12.4345 20.5847 12.0245V8.70459C20.5847 7.46459 19.5747 6.45459 18.3347 6.45459H4.49463C4.08463 6.45459 3.74463 6.11459 3.74463 5.70459C3.74463 5.29459 4.08463 4.95459 4.49463 4.95459H18.3347C20.4047 4.95459 22.0847 6.63459 22.0847 8.70459V12.0245C22.0847 12.4445 21.7447 12.7745 21.3347 12.7745Z" fill="#292D32"/>
<path d="M7.65463 9.62467C7.46463 9.62467 7.27463 9.55463 7.12463 9.40463L3.96463 6.24466C3.82463 6.10466 3.74463 5.91463 3.74463 5.71463C3.74463 5.51463 3.82463 5.32466 3.96463 5.18466L7.12463 2.02463C7.41463 1.73463 7.89463 1.73463 8.18463 2.02463C8.47463 2.31463 8.47463 2.79469 8.18463 3.08469L5.55466 5.71463L8.18463 8.34464C8.47463 8.63464 8.47463 9.11463 8.18463 9.40463C8.03463 9.54463 7.84463 9.62467 7.65463 9.62467Z" fill="#292D32"/>
<path d="M21.3347 20.1447H7.49463C5.42463 20.1447 3.74463 18.4647 3.74463 16.3947V13.0747C3.74463 12.6647 4.08463 12.3247 4.49463 12.3247C4.90463 12.3247 5.24463 12.6647 5.24463 13.0747V16.3947C5.24463 17.6347 6.25463 18.6447 7.49463 18.6447H21.3347C21.7447 18.6447 22.0847 18.9847 22.0847 19.3947C22.0847 19.8047 21.7447 20.1447 21.3347 20.1447Z" fill="#292D32"/>
<path d="M18.1747 23.3048C17.9847 23.3048 17.7947 23.2348 17.6447 23.0848C17.3547 22.7948 17.3547 22.3148 17.6447 22.0248L20.2747 19.3948L17.6447 16.7648C17.3547 16.4748 17.3547 15.9948 17.6447 15.7048C17.9347 15.4148 18.4147 15.4148 18.7047 15.7048L21.8647 18.8648C22.0047 19.0048 22.0847 19.1948 22.0847 19.3948C22.0847 19.5948 22.0047 19.7848 21.8647 19.9248L18.7047 23.0848C18.5647 23.2348 18.3747 23.3048 18.1747 23.3048Z" fill="#292D32"/>
<path d="M40.0906 16.0547V7.65469H45.0826V8.63869H41.1346V11.2187H43.7386V12.2027H41.1346V15.0587H45.3466V16.0547H40.0906ZM46.4341 16.0547L48.4861 12.8627L46.5901 9.92269H47.7541L48.7261 11.4107C48.7941 11.5107 48.8561 11.6107 48.9121 11.7107C48.9721 11.8107 49.0261 11.9067 49.0741 11.9987C49.1301 11.9027 49.1881 11.8067 49.2481 11.7107C49.3081 11.6107 49.3701 11.5107 49.4341 11.4107L50.3941 9.92269H51.5701L49.6621 12.8627L51.7261 16.0547H50.5501L49.4221 14.3147C49.3581 14.2107 49.2981 14.1107 49.2421 14.0147C49.1861 13.9187 49.1301 13.8227 49.0741 13.7267C49.0261 13.8227 48.9721 13.9187 48.9121 14.0147C48.8561 14.1107 48.7941 14.2107 48.7261 14.3147L47.5981 16.0547H46.4341ZM54.8741 16.1987C54.3461 16.1987 53.8921 16.0707 53.5121 15.8147C53.1321 15.5547 52.8401 15.1867 52.6361 14.7107C52.4321 14.2307 52.3301 13.6587 52.3301 12.9947C52.3301 12.3267 52.4341 11.7527 52.6421 11.2727C52.8501 10.7927 53.1461 10.4247 53.5301 10.1687C53.9181 9.90869 54.3821 9.77869 54.9221 9.77869C55.4501 9.77869 55.8981 9.90069 56.2661 10.1447C56.6341 10.3887 56.9021 10.7427 57.0701 11.2067L56.0861 11.5667C55.9861 11.3027 55.8361 11.1007 55.6361 10.9607C55.4401 10.8207 55.2061 10.7507 54.9341 10.7507C54.4381 10.7507 54.0581 10.9427 53.7941 11.3267C53.5301 11.7107 53.3981 12.2667 53.3981 12.9947C53.3981 13.7067 53.5281 14.2547 53.7881 14.6387C54.0481 15.0227 54.4181 15.2147 54.8981 15.2147C55.2061 15.2147 55.4681 15.1347 55.6841 14.9747C55.9041 14.8147 56.0581 14.5907 56.1461 14.3027L57.1181 14.6267C56.9701 15.1307 56.7001 15.5187 56.3081 15.7907C55.9161 16.0627 55.4381 16.1987 54.8741 16.1987ZM58.5701 16.0547V7.87069L59.6141 7.39069V10.5587C59.8021 10.2987 60.0281 10.1047 60.2921 9.97669C60.5601 9.84469 60.8621 9.77869 61.1981 9.77869C61.7301 9.77869 62.1561 9.88869 62.4761 10.1087C62.8001 10.3287 63.0341 10.6447 63.1781 11.0567C63.3221 11.4647 63.3941 11.9547 63.3941 12.5267V16.0547H62.3501V12.3467C62.3501 11.8667 62.2421 11.4787 62.0261 11.1827C61.8141 10.8867 61.4821 10.7387 61.0301 10.7387C60.5621 10.7387 60.2081 10.8727 59.9681 11.1407C59.7321 11.4047 59.6141 11.7987 59.6141 12.3227V16.0547H58.5701ZM67.0464 16.1987C66.3824 16.1987 65.8604 16.0147 65.4804 15.6467C65.1004 15.2787 64.9104 14.7747 64.9104 14.1347C64.9104 13.7227 65.0044 13.3647 65.1924 13.0607C65.3804 12.7567 65.6464 12.5227 65.9904 12.3587C66.3344 12.1907 66.7384 12.1067 67.2024 12.1067C67.5024 12.1067 67.7824 12.1407 68.0424 12.2087C68.3064 12.2727 68.5544 12.3707 68.7864 12.5027V12.0707C68.7864 11.5947 68.6784 11.2467 68.4624 11.0267C68.2464 10.8027 67.9104 10.6907 67.4544 10.6907C67.1624 10.6907 66.8584 10.7447 66.5424 10.8527C66.2304 10.9607 65.9384 11.1107 65.6664 11.3027L65.3664 10.4267C65.6744 10.2227 66.0244 10.0647 66.4164 9.95269C66.8124 9.83669 67.2024 9.77869 67.5864 9.77869C68.3144 9.77869 68.8604 9.96469 69.2244 10.3367C69.5884 10.7047 69.7704 11.2547 69.7704 11.9867V16.0547H68.7864V15.4907C68.5464 15.7187 68.2764 15.8947 67.9764 16.0187C67.6764 16.1387 67.3664 16.1987 67.0464 16.1987ZM67.2024 15.2867C67.4864 15.2867 67.7664 15.2167 68.0424 15.0767C68.3224 14.9367 68.5704 14.7387 68.7864 14.4827V13.4267C68.5824 13.2987 68.3504 13.1987 68.0904 13.1267C67.8304 13.0547 67.5824 13.0187 67.3464 13.0187C66.8984 13.0187 66.5444 13.1207 66.2844 13.3247C66.0244 13.5247 65.8944 13.7987 65.8944 14.1467C65.8944 14.4987 66.0104 14.7767 66.2424 14.9807C66.4744 15.1847 66.7944 15.2867 67.2024 15.2867ZM71.6191 16.0547V9.92269H72.6631V10.5467C72.8511 10.2867 73.0771 10.0947 73.3411 9.97069C73.6051 9.84269 73.9071 9.77869 74.2471 9.77869C74.9911 9.77869 75.5431 10.0047 75.9031 10.4567C76.2631 10.9047 76.4431 11.5947 76.4431 12.5267V16.0547H75.3991V12.3467C75.3991 11.8307 75.2831 11.4347 75.0511 11.1587C74.8231 10.8787 74.4991 10.7387 74.0791 10.7387C73.6111 10.7387 73.2571 10.8727 73.0171 11.1407C72.7811 11.4047 72.6631 11.7987 72.6631 12.3227V16.0547H71.6191ZM80.3206 18.6107L79.8166 17.7947C80.3606 17.7627 80.8046 17.6887 81.1486 17.5727C81.4966 17.4567 81.7526 17.2927 81.9166 17.0807C82.0846 16.8687 82.1686 16.6027 82.1686 16.2827V15.4547C81.8006 15.9507 81.2726 16.1987 80.5846 16.1987C80.0806 16.1987 79.6406 16.0647 79.2646 15.7967C78.8886 15.5287 78.5966 15.1547 78.3886 14.6747C78.1806 14.1907 78.0766 13.6267 78.0766 12.9827C78.0766 12.3307 78.1806 11.7647 78.3886 11.2847C78.6006 10.8047 78.8966 10.4347 79.2766 10.1747C79.6566 9.91069 80.1046 9.77869 80.6206 9.77869C80.9286 9.77869 81.2166 9.83669 81.4846 9.95269C81.7566 10.0647 81.9846 10.2227 82.1686 10.4267V9.92269H83.2126V15.8867C83.2126 16.3227 83.1546 16.7047 83.0386 17.0327C82.9226 17.3647 82.7446 17.6427 82.5046 17.8667C82.2646 18.0907 81.9626 18.2627 81.5986 18.3827C81.2386 18.5067 80.8126 18.5827 80.3206 18.6107ZM80.8006 15.2267C81.0646 15.2267 81.3206 15.1467 81.5686 14.9867C81.8206 14.8267 82.0206 14.6187 82.1686 14.3627V11.5547C82.0326 11.3187 81.8326 11.1247 81.5686 10.9727C81.3086 10.8167 81.0526 10.7387 80.8006 10.7387C80.2606 10.7387 79.8466 10.9307 79.5586 11.3147C79.2746 11.6987 79.1326 12.2547 79.1326 12.9827C79.1326 13.4387 79.2006 13.8347 79.3366 14.1707C79.4766 14.5067 79.6706 14.7667 79.9186 14.9507C80.1706 15.1347 80.4646 15.2267 80.8006 15.2267ZM87.3838 16.1987C86.8238 16.1987 86.3398 16.0607 85.9318 15.7847C85.5238 15.5087 85.2098 15.1287 84.9898 14.6447C84.7698 14.1607 84.6598 13.6067 84.6598 12.9827C84.6598 12.3067 84.7738 11.7307 85.0018 11.2547C85.2298 10.7747 85.5478 10.4087 85.9558 10.1567C86.3638 9.90469 86.8398 9.77869 87.3838 9.77869C87.8438 9.77869 88.2658 9.88269 88.6498 10.0907C89.0338 10.2947 89.3398 10.6127 89.5678 11.0447C89.7998 11.4727 89.9158 12.0227 89.9158 12.6947C89.9158 12.7907 89.9118 12.9027 89.9038 13.0307C89.8998 13.1547 89.8918 13.2827 89.8798 13.4147H85.7278C85.7678 13.7867 85.8598 14.1127 86.0038 14.3927C86.1478 14.6727 86.3378 14.8927 86.5738 15.0527C86.8098 15.2087 87.0878 15.2867 87.4078 15.2867C87.6678 15.2867 87.9078 15.2407 88.1278 15.1487C88.3518 15.0567 88.5598 14.9147 88.7518 14.7227L89.3638 15.4067C89.1358 15.6347 88.8518 15.8247 88.5118 15.9767C88.1758 16.1247 87.7998 16.1987 87.3838 16.1987ZM85.7158 12.5027H88.8598C88.8598 12.1547 88.8018 11.8447 88.6858 11.5727C88.5738 11.2967 88.4078 11.0807 88.1878 10.9247C87.9678 10.7687 87.6998 10.6907 87.3838 10.6907C86.9398 10.6907 86.5578 10.8347 86.2378 11.1227C85.9218 11.4107 85.7478 11.8707 85.7158 12.5027Z" fill="#111111"/>
</svg>
