<svg width="25" height="25" viewBox="0 0 25 25" fill="none" xmlns="http://www.w3.org/2000/svg">
<path d="M15.4832 22.9607H8.96325C4.05325 22.9607 1.95325 20.8607 1.95325 15.9507V15.8207C1.95325 11.3807 3.70325 9.24072 7.62325 8.87072C8.02325 8.84072 8.40325 9.14072 8.44325 9.55072C8.48325 9.96072 8.18325 10.3307 7.76325 10.3707C4.62325 10.6607 3.45325 12.1407 3.45325 15.8307V15.9607C3.45325 20.0307 4.89325 21.4707 8.96325 21.4707H15.4832C19.5532 21.4707 20.9932 20.0307 20.9932 15.9607V15.8307C20.9932 12.1207 19.8032 10.6407 16.6032 10.3707C16.1932 10.3307 15.8832 9.97072 15.9232 9.56072C15.9632 9.15072 16.3132 8.84072 16.7332 8.88072C20.7132 9.22072 22.4932 11.3707 22.4932 15.8407V15.9707C22.4932 20.8607 20.3932 22.9607 15.4832 22.9607Z" fill="#292D32"/>
<path d="M12.2233 16.3409C11.8133 16.3409 11.4733 16.0009 11.4733 15.5909V2.71094C11.4733 2.30094 11.8133 1.96094 12.2233 1.96094C12.6333 1.96094 12.9733 2.30094 12.9733 2.71094V15.5909C12.9733 16.0109 12.6333 16.3409 12.2233 16.3409Z" fill="#292D32"/>
<path d="M12.2233 17.4608C12.0333 17.4608 11.8433 17.3908 11.6933 17.2408L8.34329 13.8908C8.05329 13.6008 8.05329 13.1208 8.34329 12.8308C8.63329 12.5408 9.11329 12.5408 9.40329 12.8308L12.2233 15.6508L15.0433 12.8308C15.3333 12.5408 15.8133 12.5408 16.1033 12.8308C16.3933 13.1208 16.3933 13.6008 16.1033 13.8908L12.7533 17.2408C12.6033 17.3908 12.4133 17.4608 12.2233 17.4608Z" fill="#292D32"/>
</svg>
