<?xml version="1.0" encoding="UTF-8"?>
<svg id="Layer_1" data-name="Layer 1" xmlns="http://www.w3.org/2000/svg" viewBox="0 0 1080 1080">
  <defs>
    <style>
      .cls-1 {
        opacity: .1;
      }

      .cls-2 {
        fill: #bac2cc;
      }
    </style>
  </defs>
  <g class="cls-1">
    <path class="cls-2" d="M772.41,441.74c0,22.28-9.04,43.23-25.36,58.89-16.1,15.66-37.5,24.48-60.44,24.48h-44.11c-12.79,0-23.16-10.37-23.16-23.16s10.37-23.38,23.16-23.38h44.11c10.81,0,20.73-3.97,28.23-11.03,7.28-7.06,11.25-16.32,11.25-26.03s-3.75-18.31-10.81-25.36c-7.72-7.94-18.53-12.35-29.78-12.35H402.3c-10.59,0-20.51,3.97-28.01,11.25-7.28,7.06-11.25,16.1-11.25,26.03-.22,9.26,3.53,18.31,10.59,25.14,7.94,7.94,18.75,12.35,30,12.35h93.3c73.67,0,133.44,58.45,133.44,129.91v84.04c0,22.5-9.04,43.67-25.14,59.77-16.32,16.32-37.94,25.14-60.66,25.14h-.44c-22.72,0-43.89-8.6-59.99-24.26-16.32-15.88-25.36-37.06-25.36-59.55v-120.43c0-12.79,10.37-23.16,23.16-23.16s23.16,10.37,23.16,23.16v120.43c0,9.93,3.97,19.19,11.25,26.25,7.5,7.28,17.42,11.25,28.01,11.25s20.51-4.19,28.23-11.69c7.28-7.28,11.47-16.76,11.47-26.91v-84.04c0-46.1-39.04-83.37-87.12-83.37h-93.3c-23.6,0-46.32-9.48-62.86-26.03-15.66-15.88-24.26-36.61-24.26-58.45,.22-22.28,9.26-43.23,25.59-58.89,16.1-15.66,37.5-24.26,60.22-24.26h283.21c23.6,0,46.32,9.48,62.86,26.03,15.66,15.88,24.26,36.61,24.04,58.23Z"/>
    <path class="cls-2" d="M810.79,848.24c-4.41,4.85-7.28,7.5-9.48,8.38,3.31-2.65,6.4-5.51,9.48-8.38Z"/>
    <g>
      <path class="cls-2" d="M329.29,194.04c-1.1-1.76-.88-3.53-.66-5.29,14.56-7.94,29.12-15.66,43.67-23.38,2.43,.66,4.19,1.54,5.29,4.19,5.07,12.13,10.59,24.26,16.1,36.39,2.21,4.63,1.54,6.84-3.53,8.82-11.25,4.41-21.39,10.59-31.76,16.32-2.87,1.54-5.29,2.87-7.5-.88-7.06-12.13-14.34-24.26-21.62-36.17Z"/>
      <path class="cls-2" d="M439.57,191.39c-3.75-13.23-7.5-26.91-11.69-40.36-1.1-3.97,.66-5.29,3.75-6.18,14.34-3.97,28.89-7.06,43.45-9.48,2.87-.44,5.29,1.32,5.73,4.19,1.98,13.68,3.97,27.35,6.4,41.03,.44,2.87-1.54,5.29-4.41,5.73-12.57,1.76-24.92,4.63-37.28,7.94-2.87,.88-5.29,1.54-5.95-2.87Z"/>
      <path class="cls-2" d="M653.3,929.19c1.1,3.31,.88,5.73-2.21,6.18-15.66,4.41-30.66,7.5-45.88,10.15-3.53,.44-3.97-1.1-4.41-3.97-1.99-13.9-4.19-27.79-6.4-41.69-.66-3.97,1.1-5.07,4.41-5.51,12.35-1.76,24.48-4.63,36.61-7.94,2.87-.66,5.29-1.54,6.62,2.87,3.53,13.46,7.28,26.69,11.25,39.92Z"/>
      <path class="cls-2" d="M730.28,850.23c7.94,13.23,15.66,26.25,23.38,39.26-.22,1.1-.44,1.54-.66,2.43-.44,.44-.88,.66-1.32,.88-.44,.22-.66,.44-.88,.44-.66,.44-1.1,.66-1.76,.88-13.23,8.38-27.13,15.66-41.25,22.06-5.29-4.85-5.96-11.91-9.04-17.65-4.19-7.94-7.5-16.54-11.25-24.7-1.32-3.09-1.99-5.51,1.98-7.06,11.69-4.63,22.5-11.03,33.53-17.2,2.65-1.32,5.07-3.09,7.28,.66Z"/>
      <path class="cls-2" d="M605.22,752.3c-16.32,16.32-37.94,25.14-60.66,25.14h-.44c-22.72,0-43.89-8.6-59.99-24.26-16.32-15.88-25.36-37.06-25.36-59.55v-120.43c0-12.79,10.37-23.16,23.16-23.16s23.16,10.37,23.16,23.16v120.43c0,9.93,3.97,19.19,11.25,26.25,7.5,7.28,17.42,11.25,28.01,11.25s20.51-4.19,28.23-11.69c7.28-7.28,11.47-16.76,11.47-26.91v-84.04c0-46.1-39.04-83.37-87.12-83.37h-93.3c-23.6,0-46.32-9.48-62.86-26.03-15.66-15.88-24.26-36.61-24.26-58.45,.22-22.28,9.26-43.23,25.59-58.89,16.1-15.66,37.5-24.26,60.22-24.26h283.21c23.6,0,46.32,9.48,62.86,26.03,15.66,15.88,24.26,36.61,24.04,58.23,0,22.28-9.04,43.23-25.36,58.89-16.1,15.66-37.5,24.48-60.44,24.48h-44.11c-12.79,0-23.16-10.37-23.16-23.16s10.37-23.38,23.16-23.38h44.11c10.81,0,20.73-3.97,28.23-11.03,7.28-7.06,11.25-16.32,11.25-26.03s-3.75-18.31-10.81-25.36c-7.72-7.94-18.53-12.35-29.78-12.35H402.3c-10.59,0-20.51,3.97-28.01,11.25-7.28,7.06-11.25,16.1-11.25,26.03-.22,9.26,3.53,18.31,10.59,25.14,7.94,7.94,18.75,12.35,30,12.35h93.3c73.67,0,133.44,58.45,133.44,129.91v84.04c0,22.5-9.04,43.67-25.14,59.77Z"/>
    </g>
    <path class="cls-2" d="M947.32,539.67c0,87.35-26.69,168.29-72.35,234.9-18.09,26.91-39.48,51.39-63.52,73.01-.22,.44-.44,.66-.66,.66-3.09,2.87-6.18,5.73-9.48,8.38,0,.22-.22,.22-.44,.22-2.21,.88-3.97-.44-6.18-3.31-7.94-10.15-15.66-20.29-24.04-29.78-3.53-3.97-2.65-5.73,.88-8.82,62.86-52.94,103.23-120.43,120.43-202.48,10.59-49.85,10.15-100.58-.88-149.54-1.1-4.85-2.21-9.48-3.53-14.34-3.53-13.01-7.72-25.81-12.79-38.6-23.16-58.23-57.13-105.43-101.02-142.27-3.97-3.31-7.94-6.62-12.13-9.48-30.44-23.16-65.29-41.91-104.11-56.24-1.32-.44-2.65-.66-3.97-1.1-.44-.22-.88,0-2.87-.22,3.31,6.4,6.4,12.13,9.48,17.87,6.62,12.35,13.01,24.92,19.85,37.28,2.21,3.97,2.65,6.4-2.21,8.6-11.91,5.95-23.6,12.35-35.07,18.75-2.87,1.54-6.18,.44-7.72-2.21-22.06-42.13-44.33-84.04-66.83-125.94-1.54-2.87-.44-6.4,2.43-7.94,9.92-5.29,19.63-10.37,29.56-15.66,32.2-16.98,64.19-34.19,96.17-51.17,4.41-2.43,5.96-1.1,7.94,2.65,5.95,11.69,11.91,23.38,18.53,34.63,2.43,4.63,1.32,6.4-2.87,8.6-14.78,7.28-29.33,15.44-45,23.6,63.08,22.5,119.11,60.21,163.44,108.74,3.09,3.09,5.96,6.4,8.6,9.71,62.64,72.57,100.36,167.63,100.36,271.52Z"/>
    <path class="cls-2" d="M132.68,540.33c0-87.35,26.69-168.29,72.35-234.9,18.09-26.91,39.48-51.39,63.52-73.01,.22-.44,.44-.66,.66-.66,3.09-2.87,6.18-5.73,9.48-8.38,0-.22,.22-.22,.44-.22,2.21-.88,3.97,.44,6.18,3.31,7.94,10.15,15.66,20.29,24.04,29.78,3.53,3.97,2.65,5.73-.88,8.82-62.86,52.94-103.23,120.43-120.43,202.48-10.59,49.85-10.15,100.58,.88,149.54,1.1,4.85,2.21,9.48,3.53,14.34,3.53,13.01,7.72,25.81,12.79,38.6,23.16,58.23,57.13,105.43,101.02,142.27,3.97,3.31,7.94,6.62,12.13,9.48,30.44,23.16,65.29,41.91,104.11,56.24,1.32,.44,2.65,.66,3.97,1.1,.44,.22,.88,0,2.87,.22-3.31-6.4-6.4-12.13-9.48-17.87-6.62-12.35-13.01-24.92-19.85-37.28-2.21-3.97-2.65-6.4,2.21-8.6,11.91-5.95,23.6-12.35,35.07-18.75,2.87-1.54,6.18-.44,7.72,2.21,22.06,42.13,44.33,84.04,66.83,125.94,1.54,2.87,.44,6.4-2.43,7.94-9.92,5.29-19.63,10.37-29.56,15.66-32.2,16.98-64.19,34.19-96.17,51.17-4.41,2.43-5.96,1.1-7.94-2.65-5.95-11.69-11.91-23.38-18.53-34.63-2.43-4.63-1.32-6.4,2.87-8.6,14.78-7.28,29.33-15.44,45-23.6-63.08-22.5-119.11-60.21-163.44-108.74-3.09-3.09-5.96-6.4-8.6-9.71-62.64-72.57-100.36-167.63-100.36-271.52Z"/>
  </g>
</svg>