<svg width="25" height="25" viewBox="0 0 25 25" fill="none" xmlns="http://www.w3.org/2000/svg">
<path d="M15.1346 22.5595C13.9546 22.5595 12.2846 21.7295 10.9646 17.7595L10.2446 15.5995L8.08456 14.8795C4.12456 13.5595 3.29456 11.8895 3.29456 10.7095C3.29456 9.53951 4.12456 7.85951 8.08456 6.52951L16.5746 3.69951C18.6946 2.98951 20.4646 3.19951 21.5546 4.27951C22.6446 5.35951 22.8546 7.13951 22.1446 9.25951L19.3146 17.7495C17.9846 21.7295 16.3146 22.5595 15.1346 22.5595ZM8.55456 7.95951C5.77456 8.88951 4.78456 9.98951 4.78456 10.7095C4.78456 11.4295 5.77456 12.5295 8.55456 13.4495L11.0746 14.2895C11.2946 14.3595 11.4746 14.5395 11.5446 14.7595L12.3846 17.2795C13.3046 20.0595 14.4146 21.0495 15.1346 21.0495C15.8546 21.0495 16.9546 20.0595 17.8846 17.2795L20.7146 8.78951C21.2246 7.24951 21.1346 5.98951 20.4846 5.33951C19.8346 4.68951 18.5746 4.60951 17.0446 5.11951L8.55456 7.95951Z" fill="#292D32"/>
<path d="M11.0245 15.3297C10.8345 15.3297 10.6445 15.2597 10.4945 15.1097C10.2045 14.8197 10.2045 14.3397 10.4945 14.0497L14.0745 10.4597C14.3645 10.1697 14.8445 10.1697 15.1345 10.4597C15.4245 10.7497 15.4245 11.2297 15.1345 11.5197L11.5545 15.1097C11.4145 15.2597 11.2145 15.3297 11.0245 15.3297Z" fill="#292D32"/>
</svg>
