<?xml version="1.0" encoding="utf-8"?>
<!-- Generator: Adobe Illustrator 27.0.0, SVG Export Plug-In . SVG Version: 6.00 Build 0)  -->
<svg version="1.1" id="Layer_1" xmlns="http://www.w3.org/2000/svg" xmlns:xlink="http://www.w3.org/1999/xlink" x="0px" y="0px"
	 viewBox="0 0 311 291" style="enable-background:new 0 0 311 291;" xml:space="preserve">
<style type="text/css">
	.st0{fill:#22C55E;}
	.st1{fill:#0C4C7B;}
</style>
<g>
	<g>
		<path class="st0" d="M40.8,195.1c-0.6-3.8-2.4-7.1-3.6-10.7c-6.8-21-8-42.2-3.5-63.8c5-24.1,16.1-45,33.4-62.5
			c2.8-2.8,5.8-5.4,8.7-8.1c1-0.9,1.5-0.8,2.3,0.2c2.6,3.3,5.3,6.6,8,9.8c1.2,1.4-0.1,1.8-0.8,2.4C76.4,70,68.7,78.6,62.7,88.7
			c-17.3,29.4-21.2,60.4-10,92.7c11.5,33.1,34.5,55,67.3,67c0.5,0.2,1,0.5,1.8,0.8c0-1.5-0.7-2.3-1.2-3.1c-2.4-4.7-4.9-9.3-7.4-13.9
			c-0.8-1.4-0.5-2,0.9-2.7c3.6-1.8,7-3.7,10.5-5.6c1.1-0.6,1.6-0.4,2.2,0.7c6.7,12.8,13.5,25.5,20.3,38.2c0.9,1.7,0,2-1.2,2.6
			c-11.7,6.2-23.3,12.4-35,18.6c-4.3,2.3-4.3,2.3-6.5-1.9c-1.4-2.6-2.6-5.2-4.1-7.7c-0.9-1.5-0.5-2.2,1-2.9c4.7-2.4,9.4-5,14.5-7.7
			c-4.8-1.9-9.3-3.5-13.5-5.6c-20.1-9.7-36.7-23.5-49.4-41.9c-0.8-1.2-1.4-2.7-2.8-3.5C47,206.8,43.9,200.9,40.8,195.1z"/>
		<path class="st0" d="M269.8,95.4c0.5,3.1,2.1,5.9,3.1,8.8c12.4,37.1,8.6,72.5-11.1,106.1c-6.9,11.8-15.8,21.9-26.2,30.7
			c-1.4,1.2-2.1,0.9-3-0.3c-2.4-3.1-4.8-6.1-7.3-9.1c-1-1.2-0.8-1.7,0.3-2.7c17-14.4,28.6-32.2,34.6-53.7
			c6.5-23.3,5.7-46.3-3.2-68.9c-12.3-31.2-34.7-52.1-66.1-63.5c-0.4-0.1-0.8-0.3-1.2-0.4c-0.1,0-0.3,0-0.9-0.1
			c1,1.9,1.9,3.7,2.9,5.4c2,3.8,4,7.6,6.1,11.4c0.7,1.2,0.8,1.9-0.7,2.6c-3.6,1.8-7.2,3.7-10.7,5.7c-1.1,0.6-1.6,0.4-2.2-0.7
			c-6.7-12.8-13.5-25.5-20.3-38.2c-0.6-1.2-0.5-1.8,0.7-2.4C177.3,19.6,190,12.8,202.7,6c1.3-0.7,1.8-0.3,2.4,0.8
			c1.8,3.5,3.6,7.1,5.6,10.5c0.8,1.4,0.4,1.9-0.9,2.6c-4.8,2.5-9.6,5-14.7,7.8c4.7,1.9,9.1,3.5,13.3,5.5c20.2,9.7,36.8,23.6,49.6,42
			c0.9,1.3,1.5,3,3,3.9C264,84.5,266.9,90,269.8,95.4z"/>
		<g>
			<g>
				<path class="st1" d="M104.4,31.8c0.7,0.2,1.2,0.4,1.6,1.2c1.6,3.7,3.2,7.4,4.9,11.1c0.7,1.4,0.5,2.1-1.1,2.7
					c-3.4,1.3-6.5,3.2-9.7,5c-0.8,0.5-1.6,0.8-2.2-0.3c-2.2-3.7-4.4-7.3-6.6-11C91,40,91,39.5,91.1,38.9
					C95.5,36.6,99.9,34.2,104.4,31.8z"/>
				<path class="st1" d="M206.2,259.7c-1.6-1.4-1.8-3.6-2.7-5.3c-1.3-2.4-2.3-5-3.4-7.5c-0.4-0.9-0.6-1.6,0.6-2.1
					c3.5-1.4,6.8-3.4,10.2-5.2c0.8-0.4,1.5-1,2.2,0.2c2.2,3.8,4.5,7.5,6.7,11.3c0.2,0.4,0.1,0.9,0.2,1.4
					C215.3,254.9,210.8,257.3,206.2,259.7z"/>
				<path class="st1" d="M124.8,39.8c-1.2-4-2.3-8.2-3.5-12.2c-0.4-1.2,0.2-1.6,1.1-1.9c4.4-1.2,8.8-2.1,13.2-2.9
					c1.2-0.2,1.5,0.2,1.7,1.3c0.6,4.2,1.2,8.3,1.9,12.4c0.2,1.1-0.1,1.6-1.3,1.8c-3.8,0.5-7.6,1.4-11.3,2.4
					C125.7,40.9,125,41.1,124.8,39.8z"/>
				<path class="st1" d="M189,265.6c-4.7,1.3-9.3,2.3-13.9,3c-1,0.2-1.2-0.3-1.4-1.1c-0.6-4.2-1.2-8.5-1.9-12.7
					c-0.2-1.2,0.3-1.6,1.4-1.7c3.8-0.5,7.4-1.4,11.1-2.4c0.9-0.2,1.6-0.5,2,0.9c1.1,4.1,2.3,8.1,3.5,12.1
					C190,264.7,189.9,265.4,189,265.6z"/>
			</g>
		</g>
	</g>
	<g>
		<g>
			<path class="st1" d="M225.8,115.8c-0.1,6.8-2.8,13.1-7.7,17.9c-4.9,4.8-11.4,7.4-18.4,7.4h-13.4c-3.9,0-7-3.2-7-7
				c0-3.9,3.2-7,7-7h13.4c3.2,0,6.3-1.2,8.6-3.4c2.2-2.1,3.4-4.9,3.4-7.9c0-2.8-1.1-5.5-3.3-7.7c-2.4-2.4-5.7-3.7-9-3.7h-86
				c-3.2,0-6.3,1.2-8.5,3.4c-2.2,2.1-3.4,4.9-3.4,7.9c0,2.8,1.1,5.6,3.3,7.7c2.4,2.4,5.7,3.7,9.1,3.7h28.4
				c22.3,0,40.5,17.7,40.5,39.4v25.5c0,6.8-2.7,13.2-7.6,18.1c-4.9,4.9-11.5,7.6-18.4,7.6h-0.2c-6.9,0-13.3-2.6-18.2-7.4
				c-5-4.8-7.7-11.2-7.7-18.1v-36.6c0-3.9,3.2-7,7-7c3.9,0,7,3.2,7,7v36.6c0,3,1.2,5.8,3.4,7.9c2.2,2.2,5.3,3.4,8.5,3.4
				c3.3,0,6.3-1.3,8.6-3.5c2.2-2.2,3.5-5.1,3.5-8.2v-25.5c0-14-11.9-25.3-26.4-25.3h-28.4c-7.1,0-14-2.9-19-7.9
				c-4.8-4.8-7.4-11.1-7.4-17.7c0-6.8,2.8-13.1,7.7-17.9c4.9-4.8,11.4-7.4,18.3-7.4h86c7.1,0,14,2.9,19,7.9
				C223.3,102.9,225.9,109.1,225.8,115.8z"/>
		</g>
	</g>
</g>
</svg>
